<svg width="776" height="552" viewBox="0 0 776 552" fill="none" xmlns="http://www.w3.org/2000/svg">
<g id="catcontact">
<g id="backgroundimg">
<g id="Asset 12 1">
<g id="Layer 2">
<g id="Layer 1">
<path id="Vector" d="M254.449 288.484H135.838C111.336 288.484 91.4738 308.349 91.4738 332.855V454.532C91.4738 479.038 111.336 498.903 135.838 498.903H254.449C278.951 498.903 298.814 479.038 298.814 454.532V332.855C298.814 308.349 278.951 288.484 254.449 288.484Z" fill="#EDEDE9"/>
<path id="Vector_2" d="M329.305 361.673C315.614 373.871 281.037 407.782 271.372 462.308C267.993 481.475 267.993 501.084 271.372 520.25H512.252L516.825 462.308C518.167 445.078 509.02 385.246 460.417 355.574C422.455 332.428 371.383 335.416 329.305 361.673Z" fill="#EDEDE9"/>
<path id="Vector_3" d="M626.698 197H529.706C507.225 197 489 215.227 489 237.712V362.072C489 384.557 507.225 402.784 529.706 402.784H626.698C649.179 402.784 667.404 384.557 667.404 362.072V237.712C667.404 215.227 649.179 197 626.698 197Z" fill="#EDEDE9"/>
<g id="Clip path group">
<mask id="mask0_2_244" style="mask-type:luminance" maskUnits="userSpaceOnUse" x="268" y="339" width="249" height="182">
<g id="clip-path">
<path id="Vector_4" d="M329.305 361.673C315.614 373.871 281.037 407.782 271.372 462.308C267.993 481.474 267.993 501.084 271.372 520.25H512.252L516.825 462.308C518.167 445.078 509.02 385.246 460.417 355.574C422.455 332.428 371.383 335.416 329.305 361.673Z" fill="white"/>
</g>
</mask>
<g mask="url(#mask0_2_244)">
<g id="Group">
<path id="Vector_5" d="M329.467 361.732C315.777 373.93 281.2 407.841 271.534 462.367C268.155 481.533 268.155 501.143 271.534 520.309H512.414L516.988 462.367C518.33 445.137 509.182 385.305 460.579 355.633C422.618 332.487 371.545 335.475 329.467 361.732Z" fill="#F0EAD2" stroke="#110A0A" stroke-miterlimit="10"/>
<path id="Vector_6" d="M503.104 465.358C503.104 468.408 497.006 535.498 503.104 538.547C509.203 541.597 521.399 538.547 521.399 538.547V489.754L503.104 465.358Z" fill="#CEC9B6"/>
<path id="Vector_7" d="M298.814 459.259C307.961 459.991 303.326 526.959 301.863 541.597C301.527 544.86 300.857 550.38 298.814 550.746C295.216 551.386 289.117 536.199 286.617 526.349C278.537 494.817 292.014 458.71 298.814 459.259Z" fill="#CEC9B6"/>
</g>
</g>
</g>
<path id="Vector_8" d="M329.305 361.673C315.614 373.871 281.037 407.782 271.372 462.308C267.993 481.474 267.993 501.084 271.372 520.25H512.252L516.825 462.308C518.167 445.078 509.02 385.246 460.417 355.574C422.455 332.428 371.383 335.416 329.305 361.673Z" stroke="#110A0A" stroke-width="4" stroke-miterlimit="10"/>
<g id="Vector_9">
<path d="M318.633 433.338L295.765 520.25H253.077C260.524 474.699 277.119 431.129 301.863 392.169" fill="#F0EAD2"/>
<path d="M318.633 433.338L295.765 520.25H253.077C260.524 474.699 277.119 431.129 301.863 392.169" stroke="#110A0A" stroke-width="4" stroke-miterlimit="10"/>
</g>
<path id="Vector_10" d="M321.682 521.775V466.883C321.408 458.741 322.048 441.206 333.878 427.239C348.606 409.856 371.078 409.124 397.91 408.941C417.699 408.941 449.745 408.606 467.277 430.288C468.131 431.386 469.564 432.819 471.119 435.107C476.243 443.275 478.881 452.758 478.711 462.4C479.26 476.794 480.053 497.012 480.236 521.866H321.682V521.775Z" fill="#806755" stroke="black" stroke-width="4" stroke-linecap="round" stroke-linejoin="round"/>
<path id="Vector_11" d="M401.975 30H283.365C258.863 30 239 49.8656 239 74.371V196.048C239 220.554 258.863 240.419 283.365 240.419H401.975C426.477 240.419 446.34 220.554 446.34 196.048V74.371C446.34 49.8656 426.477 30 401.975 30Z" fill="#EDEDE9"/>
<path id="Vector_12" d="M525.936 142.013L650.248 142.165C653.095 142.168 655.823 143.303 657.834 145.318C659.844 147.334 660.971 150.066 660.968 152.913L660.806 285.904C660.798 291.856 658.427 297.562 654.213 301.766C649.999 305.97 644.288 308.328 638.337 308.321L525.733 308.183C524.323 308.182 522.928 307.902 521.627 307.361C520.325 306.82 519.143 306.028 518.147 305.03C517.152 304.032 516.363 302.848 515.825 301.545C515.287 300.242 515.011 298.845 515.013 297.436L515.19 152.734C515.192 151.325 515.471 149.929 516.012 148.628C516.553 147.326 517.345 146.143 518.343 145.148C519.341 144.152 520.525 143.363 521.828 142.825C523.13 142.287 524.526 142.011 525.936 142.013Z" fill="#EDEDE9" stroke="#110A0A" stroke-width="4" stroke-miterlimit="10"/>
<path id="Vector_13" d="M537.131 155.338H639.459C640.727 155.337 641.982 155.589 643.151 156.078C644.321 156.567 645.382 157.283 646.273 158.185C647.163 159.087 647.866 160.157 648.34 161.333C648.814 162.509 649.05 163.767 649.033 165.035V273.904C649.033 279.218 646.923 284.314 643.166 288.072C639.409 291.829 634.314 293.94 629.001 293.94H537.131C535.858 293.948 534.596 293.702 533.42 293.217C532.243 292.732 531.175 292.017 530.278 291.114C529.381 290.211 528.672 289.138 528.195 287.958C527.717 286.778 527.479 285.515 527.496 284.242V165.035C527.496 162.496 528.504 160.06 530.3 158.264C532.095 156.468 534.531 155.46 537.07 155.46L537.131 155.338Z" fill="#EDEDE9" stroke="#110A0A" stroke-width="4" stroke-miterlimit="10"/>
<path id="Vector_14" d="M74.7036 521.775H772.951" stroke="#040404" stroke-width="4" stroke-linecap="round" stroke-linejoin="round"/>
<g id="Group 4">
<g id="Vector_15">
<path d="M497.006 392.169C526.339 456.423 534.022 470.39 535.12 469.932C535.638 469.719 534.907 465.907 521.399 425.714C504.263 374.786 499.598 363.472 503.104 346.425C506.154 331.788 515.118 312.636 524.448 312.88C535.364 313.185 542.042 340.54 554.939 395.218C570.551 461.485 568.874 482.801 557.989 498.903C555.824 501.953 547.347 514.578 536.645 514.151C528.168 513.815 522.253 505.551 512.252 489.754C504.05 476.824 493.439 459.259 481.761 437.912" fill="#F0EAD2"/>
<path d="M497.006 392.169C526.339 456.423 534.022 470.39 535.12 469.932C535.638 469.719 534.907 465.907 521.399 425.714C504.263 374.786 499.598 363.472 503.104 346.425C506.154 331.788 515.118 312.636 524.448 312.88C535.364 313.185 542.042 340.54 554.939 395.218C570.551 461.485 568.874 482.801 557.989 498.903C555.824 501.953 547.347 514.578 536.645 514.151C528.168 513.815 522.253 505.551 512.252 489.754C504.05 476.824 493.439 459.259 481.761 437.912" stroke="#110A0A" stroke-width="4" stroke-miterlimit="10"/>
</g>
</g>
<path id="Vector_16" d="M588.236 494.695C583.196 494.707 578.265 493.224 574.067 490.434C569.869 487.644 566.592 483.672 564.651 479.02C562.71 474.368 562.191 469.245 563.16 464.298C564.129 459.351 566.543 454.802 570.097 451.227C573.65 447.652 578.183 445.211 583.124 444.212C588.064 443.213 593.189 443.701 597.852 445.615C602.515 447.529 606.506 450.782 609.321 454.964C612.135 459.146 613.647 464.068 613.665 469.109C613.665 475.868 610.991 482.353 606.227 487.147C601.462 491.941 594.994 494.654 588.236 494.695ZM608.878 469.231C608.884 465.13 607.674 461.119 605.401 457.705C603.128 454.291 599.893 451.629 596.107 450.054C592.321 448.479 588.152 448.062 584.129 448.856C580.106 449.65 576.409 451.62 573.505 454.516C570.601 457.412 568.621 461.104 567.815 465.125C567.009 469.146 567.413 473.317 568.977 477.108C570.541 480.899 573.193 484.142 576.6 486.426C580.006 488.709 584.013 489.931 588.114 489.937C593.608 489.929 598.876 487.747 602.766 483.868C606.657 479.988 608.854 474.726 608.878 469.231Z" fill="#040404"/>
<path id="Vector_17" d="M608.878 469.231C608.866 473.33 607.64 477.333 605.354 480.735C603.069 484.137 599.826 486.786 596.037 488.346C592.247 489.906 588.08 490.308 584.062 489.501C580.044 488.694 576.355 486.714 573.462 483.812C570.568 480.909 568.599 477.214 567.804 473.193C567.009 469.172 567.423 465.006 568.995 461.22C570.566 457.435 573.223 454.2 576.631 451.924C580.04 449.648 584.046 448.433 588.144 448.433C590.872 448.433 593.573 448.971 596.093 450.017C598.612 451.063 600.901 452.596 602.827 454.528C604.753 456.46 606.279 458.754 607.318 461.277C608.356 463.8 608.886 466.503 608.878 469.231ZM588.175 460.082C588.821 460.061 589.435 459.798 589.898 459.347C590.36 458.896 590.637 458.288 590.675 457.643C590.693 457.137 590.56 456.638 590.292 456.209C590.024 455.78 589.633 455.442 589.171 455.237C588.708 455.032 588.195 454.971 587.698 455.06C587.2 455.15 586.741 455.386 586.379 455.74C586.017 456.093 585.769 456.546 585.667 457.042C585.565 457.537 585.614 458.052 585.807 458.519C586.001 458.986 586.329 459.385 586.751 459.664C587.173 459.942 587.669 460.088 588.175 460.082ZM588.175 483.045C588.672 483.052 589.159 482.909 589.575 482.637C589.991 482.364 590.316 481.974 590.509 481.516C590.702 481.058 590.754 480.553 590.659 480.065C590.563 479.577 590.325 479.128 589.973 478.777C589.622 478.425 589.173 478.186 588.685 478.091C588.198 477.995 587.692 478.048 587.234 478.241C586.776 478.434 586.386 478.759 586.114 479.175C585.841 479.591 585.699 480.078 585.705 480.575C585.688 481.227 585.922 481.859 586.359 482.342C586.797 482.825 587.403 483.121 588.053 483.167L588.175 483.045ZM580.765 474.812C580.765 474.157 580.505 473.528 580.042 473.065C579.579 472.602 578.951 472.342 578.296 472.342C577.641 472.342 577.012 472.602 576.549 473.065C576.086 473.528 575.826 474.157 575.826 474.812C575.813 475.146 575.869 475.48 575.992 475.791C576.115 476.103 576.302 476.385 576.54 476.62C576.778 476.855 577.063 477.039 577.375 477.158C577.688 477.277 578.022 477.33 578.357 477.312C578.972 477.275 579.553 477.012 579.986 476.573C580.42 476.134 580.675 475.55 580.704 474.934L580.765 474.812ZM600.615 474.812C600.619 474.48 600.557 474.15 600.43 473.843C600.304 473.535 600.118 473.257 599.881 473.023C599.645 472.79 599.364 472.606 599.055 472.484C598.747 472.362 598.416 472.303 598.084 472.311C597.421 472.311 596.785 472.574 596.316 473.043C595.848 473.512 595.584 474.148 595.584 474.812C595.584 475.475 595.848 476.111 596.316 476.58C596.785 477.049 597.421 477.312 598.084 477.312C598.404 477.325 598.723 477.272 599.023 477.158C599.322 477.044 599.595 476.871 599.826 476.649C600.056 476.427 600.24 476.16 600.365 475.866C600.49 475.571 600.554 475.254 600.554 474.934L600.615 474.812ZM598.206 460.845C597.559 460.836 596.933 461.079 596.461 461.523C595.989 461.967 595.707 462.576 595.676 463.223C595.658 463.713 595.786 464.196 596.043 464.613C596.301 465.03 596.676 465.36 597.122 465.563C597.568 465.765 598.064 465.831 598.547 465.751C599.03 465.671 599.478 465.449 599.835 465.114C600.192 464.779 600.441 464.345 600.551 463.868C600.66 463.39 600.626 462.891 600.451 462.434C600.277 461.976 599.97 461.581 599.57 461.298C599.171 461.015 598.696 460.857 598.206 460.845ZM578.326 460.845C578.004 460.828 577.681 460.877 577.378 460.99C577.076 461.102 576.799 461.274 576.565 461.497C576.331 461.719 576.145 461.987 576.018 462.284C575.891 462.581 575.825 462.9 575.826 463.223C575.805 463.556 575.853 463.89 575.966 464.204C576.079 464.518 576.255 464.805 576.484 465.048C576.713 465.291 576.989 465.484 577.295 465.616C577.601 465.748 577.932 465.816 578.265 465.815C578.597 465.828 578.928 465.772 579.237 465.651C579.546 465.53 579.827 465.346 580.062 465.112C580.297 464.877 580.48 464.596 580.601 464.287C580.722 463.978 580.778 463.647 580.765 463.315C580.727 462.678 580.446 462.081 579.981 461.644C579.517 461.208 578.903 460.966 578.265 460.967L578.326 460.845Z" fill="#6C584C" stroke="#6C584C" stroke-width="3" stroke-miterlimit="10"/>
<path id="Vector_18" d="M588.053 460.204C587.556 460.204 587.07 460.056 586.658 459.778C586.245 459.501 585.925 459.107 585.738 458.646C585.55 458.186 585.504 457.68 585.606 457.193C585.707 456.706 585.952 456.261 586.307 455.914C586.663 455.567 587.115 455.333 587.603 455.244C588.092 455.154 588.597 455.213 589.053 455.411C589.508 455.61 589.894 455.94 590.162 456.359C590.429 456.778 590.565 457.268 590.553 457.765C590.515 458.41 590.238 459.018 589.776 459.469C589.313 459.92 588.699 460.183 588.053 460.204Z" fill="#060606"/>
<path id="Vector_19" d="M588.053 483.167C587.561 483.155 587.084 482.999 586.681 482.717C586.278 482.435 585.967 482.04 585.787 481.582C585.607 481.124 585.566 480.624 585.669 480.143C585.772 479.662 586.015 479.222 586.367 478.878C586.719 478.535 587.165 478.302 587.648 478.211C588.131 478.119 588.631 478.172 589.084 478.363C589.538 478.554 589.924 478.874 590.197 479.284C590.469 479.694 590.614 480.175 590.614 480.667C590.61 480.999 590.541 481.328 590.41 481.633C590.279 481.939 590.089 482.216 589.851 482.448C589.614 482.68 589.332 482.863 589.024 482.987C588.715 483.11 588.385 483.171 588.053 483.167Z" fill="#060606"/>
<path id="Vector_20" d="M580.704 474.934C580.705 475.581 580.454 476.204 580.005 476.67C579.555 477.137 578.943 477.411 578.296 477.434C577.961 477.452 577.627 477.399 577.314 477.28C577.001 477.16 576.717 476.977 576.479 476.742C576.241 476.507 576.054 476.225 575.931 475.913C575.808 475.602 575.752 475.268 575.765 474.934C575.765 474.279 576.025 473.65 576.488 473.187C576.951 472.724 577.58 472.464 578.235 472.464C578.89 472.464 579.518 472.724 579.981 473.187C580.444 473.65 580.704 474.279 580.704 474.934Z" fill="#070707"/>
<path id="Vector_21" d="M600.554 474.934C600.571 475.256 600.521 475.579 600.409 475.881C600.297 476.184 600.125 476.461 599.902 476.695C599.68 476.929 599.412 477.115 599.115 477.242C598.818 477.369 598.499 477.435 598.176 477.434C597.513 477.434 596.877 477.171 596.408 476.702C595.939 476.233 595.676 475.597 595.676 474.934C595.676 474.27 595.939 473.634 596.408 473.165C596.877 472.696 597.513 472.433 598.176 472.433C598.82 472.457 599.43 472.732 599.874 473.199C600.318 473.666 600.563 474.289 600.554 474.934Z" fill="#070707"/>
<path id="Vector_22" d="M598.145 460.967C598.644 460.973 599.128 461.129 599.538 461.413C599.947 461.697 600.262 462.097 600.442 462.562C600.623 463.026 600.66 463.534 600.55 464.02C600.44 464.506 600.187 464.948 599.824 465.289C599.461 465.631 599.004 465.856 598.512 465.935C598.021 466.015 597.516 465.946 597.064 465.737C596.611 465.528 596.232 465.189 595.973 464.763C595.715 464.337 595.59 463.843 595.615 463.345C595.646 462.698 595.928 462.088 596.4 461.645C596.872 461.201 597.498 460.958 598.145 460.967Z" fill="#050505"/>
<path id="Vector_23" d="M578.265 460.967C578.912 460.982 579.528 461.249 579.983 461.709C580.438 462.17 580.697 462.789 580.704 463.437C580.717 463.769 580.661 464.1 580.54 464.409C580.419 464.718 580.235 464.999 580.001 465.234C579.766 465.468 579.485 465.652 579.176 465.773C578.867 465.894 578.536 465.95 578.204 465.937C577.871 465.938 577.54 465.87 577.234 465.738C576.928 465.606 576.652 465.413 576.423 465.17C576.194 464.927 576.018 464.64 575.905 464.326C575.792 464.012 575.744 463.678 575.765 463.345C575.764 463.022 575.83 462.703 575.957 462.406C576.084 462.109 576.27 461.841 576.504 461.619C576.738 461.396 577.015 461.224 577.317 461.112C577.62 460.999 577.943 460.95 578.265 460.967Z" fill="#050505"/>
<path id="Vector_24" d="M614.824 423.793C614.854 423.252 614.771 422.711 614.581 422.204C614.39 421.697 614.096 421.235 613.718 420.848C613.339 420.461 612.884 420.157 612.382 419.955C611.879 419.753 611.34 419.658 610.799 419.676C608.756 419.676 606.713 419.676 604.701 419.676C604.173 419.664 603.647 419.757 603.156 419.951C602.664 420.145 602.217 420.435 601.839 420.804C601.461 421.173 601.161 421.615 600.956 422.102C600.751 422.589 600.645 423.112 600.646 423.64C600.646 424.677 600.646 433.582 600.646 434.558H575.856V426.873V431.813C575.856 431.813 575.856 425.043 575.856 424.098C575.918 423.498 575.846 422.891 575.644 422.323C575.443 421.754 575.117 421.238 574.69 420.812C574.264 420.385 573.747 420.059 573.179 419.857C572.611 419.655 572.004 419.583 571.405 419.645H565.672C565.122 419.632 564.574 419.732 564.064 419.941C563.554 420.149 563.093 420.461 562.709 420.856C562.326 421.251 562.028 421.722 561.835 422.237C561.641 422.753 561.557 423.304 561.586 423.854V426.903V431.782C561.961 434.386 561.445 437.041 560.123 439.315C549.085 459.3 538.139 479.315 527.284 499.361C526.798 500.306 526.527 501.348 526.491 502.41C526.491 507.747 526.491 513.114 526.491 518.451L525.332 518.695C524.805 518.791 524.331 519.076 524 519.497C523.668 519.919 523.502 520.447 523.533 520.982C523.512 521.513 523.687 522.033 524.024 522.444C524.362 522.854 524.838 523.126 525.363 523.208C525.88 523.253 526.401 523.253 526.918 523.208H649.828C650.438 523.208 651.23 523.208 651.627 522.964C652.348 522.432 652.882 521.684 653.151 520.829C653.234 520.354 653.132 519.865 652.865 519.462C652.599 519.059 652.188 518.774 651.718 518.664C651.236 518.528 650.748 518.416 650.255 518.329C650.255 513.023 650.255 507.747 650.255 502.441C650.226 501.217 649.913 500.016 649.34 498.934C638.323 478.725 627.254 458.517 616.135 438.309C615.22 436.208 614.853 433.911 615.068 431.63V423.61L614.824 423.793ZM642.937 497.378L643.791 499.025H562.074C561.506 498.994 560.936 498.994 560.367 499.025C559.793 499.064 559.256 499.324 558.869 499.751C558.483 500.177 558.276 500.737 558.293 501.312C558.276 501.891 558.481 502.454 558.867 502.885C559.253 503.317 559.79 503.583 560.367 503.63C560.895 503.66 561.424 503.66 561.952 503.63H645.224V518.42H531.095V503.63H551.067C552.683 503.63 553.628 502.929 553.811 501.678C553.881 501.326 553.866 500.961 553.768 500.616C553.671 500.27 553.493 499.952 553.249 499.687C553.006 499.423 552.703 499.22 552.366 499.094C552.03 498.968 551.668 498.924 551.311 498.964C548.536 498.964 545.762 498.964 542.987 498.964H532.711C533.016 498.354 533.23 497.866 533.504 497.378C544.115 477.943 554.736 458.507 565.367 439.071C565.886 438.071 566.168 436.965 566.191 435.838C566.191 432.026 566.191 428.214 566.191 424.342H570.947V435.686C570.947 438.735 571.649 439.345 574.545 439.345H601.774C604.609 439.345 605.311 438.644 605.311 435.777V424.372H610.067C610.159 425.916 610.159 427.464 610.067 429.007C609.604 434.661 611.018 440.311 614.092 445.079C623.88 462.309 633.271 479.935 642.937 497.378Z" fill="#040404"/>
<path id="Vector_25" d="M575.765 426.842L575.795 431.813L575.765 426.842Z" fill="#040404"/>
<path id="Vector_26" d="M610.067 429.068C610.159 427.525 610.159 425.977 610.067 424.433H605.311V435.838C605.311 438.705 604.61 439.406 601.774 439.406H574.545C571.496 439.406 570.947 438.705 570.947 435.747V424.403H566.191C566.191 428.275 566.191 432.087 566.191 435.899C566.168 437.026 565.886 438.132 565.367 439.132C554.756 458.588 544.135 478.024 533.504 497.439C533.23 497.927 533.016 498.415 532.711 499.025H542.987C545.762 499.025 548.536 499.025 551.311 499.025C551.668 498.985 552.03 499.029 552.366 499.155C552.703 499.28 553.006 499.484 553.249 499.748C553.493 500.012 553.671 500.33 553.768 500.676C553.866 501.022 553.881 501.386 553.811 501.739C553.628 502.99 552.683 503.691 551.067 503.691H531.095V518.481H645.224V503.691H561.952C561.424 503.721 560.895 503.721 560.367 503.691C559.79 503.644 559.253 503.378 558.867 502.946C558.481 502.515 558.276 501.952 558.293 501.373C558.276 500.798 558.483 500.238 558.869 499.812C559.256 499.385 559.793 499.125 560.367 499.086C560.936 499.055 561.506 499.055 562.074 499.086H643.638L642.784 497.439C633.271 479.996 623.88 462.491 614.092 445.2C611.005 440.416 609.59 434.743 610.067 429.068ZM588.236 494.695C583.196 494.707 578.265 493.224 574.067 490.434C569.869 487.644 566.592 483.672 564.651 479.02C562.71 474.368 562.191 469.245 563.16 464.298C564.129 459.351 566.543 454.802 570.097 451.227C573.65 447.652 578.183 445.211 583.123 444.212C588.064 443.213 593.189 443.701 597.852 445.615C602.515 447.529 606.506 450.782 609.321 454.964C612.135 459.146 613.647 464.068 613.665 469.109C613.665 475.868 610.991 482.353 606.227 487.147C601.462 491.941 594.994 494.654 588.236 494.695Z" fill="#FEFAE0"/>
<g id="Clip path group_2">
<mask id="mask1_2_244" style="mask-type:luminance" maskUnits="userSpaceOnUse" x="531" y="424" width="115" height="95">
<g id="clip-path-2">
<path id="Vector_27" d="M610.067 429.068C610.159 427.525 610.159 425.977 610.067 424.433H605.311V435.838C605.311 438.705 604.61 439.406 601.774 439.406H574.545C571.496 439.406 570.947 438.705 570.947 435.747V424.403H566.191C566.191 428.275 566.191 432.087 566.191 435.899C566.168 437.026 565.886 438.132 565.367 439.132C554.756 458.588 544.135 478.024 533.504 497.439C533.23 497.927 533.016 498.415 532.711 499.025H542.987C545.762 499.025 548.536 499.025 551.311 499.025C551.668 498.985 552.03 499.029 552.366 499.155C552.703 499.28 553.006 499.484 553.249 499.748C553.493 500.012 553.671 500.33 553.768 500.676C553.866 501.022 553.881 501.386 553.811 501.739C553.628 502.99 552.683 503.691 551.067 503.691H531.095V518.481H645.224V503.691H561.952C561.424 503.721 560.895 503.721 560.367 503.691C559.79 503.644 559.253 503.378 558.867 502.946C558.481 502.515 558.276 501.952 558.293 501.373C558.276 500.798 558.483 500.238 558.869 499.812C559.256 499.385 559.793 499.125 560.367 499.086C560.936 499.055 561.506 499.055 562.074 499.086H643.638L642.784 497.439C633.271 479.996 623.88 462.491 614.092 445.2C611.005 440.416 609.59 434.743 610.067 429.068ZM588.236 494.695C583.196 494.707 578.265 493.224 574.067 490.434C569.869 487.644 566.592 483.672 564.651 479.02C562.71 474.368 562.191 469.245 563.16 464.298C564.129 459.351 566.543 454.802 570.097 451.227C573.65 447.652 578.183 445.211 583.123 444.212C588.064 443.213 593.189 443.701 597.852 445.615C602.515 447.529 606.506 450.782 609.321 454.964C612.135 459.146 613.647 464.068 613.665 469.109C613.665 475.868 610.991 482.353 606.227 487.147C601.462 491.941 594.994 494.654 588.236 494.695Z" fill="white"/>
</g>
</mask>
<g mask="url(#mask1_2_244)">
<g id="Group_2">
<path id="Vector_28" d="M547.317 521.775C547.317 521.775 647.937 512.626 650.986 509.577C654.036 506.527 654.036 524.824 654.036 524.824L547.317 521.775Z" fill="#6C584C"/>
</g>
</g>
</g>
<path id="Vector_29" d="M247.345 140.611H68.4834V343.376H247.345V140.611Z" fill="#B4A195" stroke="black" stroke-width="4" stroke-linecap="round" stroke-linejoin="round"/>
<path id="Vector_30" d="M238.929 150.308H76.9294V333.922H238.929V150.308Z" fill="#EDEDE9"/>
<g id="Clip path group_3">
<mask id="mask2_2_244" style="mask-type:luminance" maskUnits="userSpaceOnUse" x="76" y="150" width="163" height="184">
<g id="clip-path-3">
<path id="Vector_31" d="M238.929 150.308H76.9294V333.922H238.929V150.308Z" fill="white"/>
</g>
</mask>
<g mask="url(#mask2_2_244)">
<g id="Group_3">
<path id="Vector_32" d="M91.4737 291.533C141.993 291.533 182.947 250.573 182.947 200.047C182.947 149.52 141.993 108.56 91.4737 108.56C40.9543 108.56 0.000244141 149.52 0.000244141 200.047C0.000244141 250.573 40.9543 291.533 91.4737 291.533Z" fill="#C6C6C6"/>
</g>
</g>
</g>
<path id="Vector_33" d="M238.929 150.308H76.9294V333.922H238.929V150.308Z" stroke="#110A0A" stroke-width="4" stroke-linecap="round" stroke-linejoin="round"/>
<path id="Vector_34" d="M153.889 150.064V333.221" stroke="black" stroke-width="4" stroke-linecap="round" stroke-linejoin="round"/>
<path id="Vector_35" d="M76.899 240.209H238.563" stroke="black" stroke-width="4" stroke-linecap="round" stroke-linejoin="round"/>
<path id="Vector_36" d="M184.472 451.117H166.177V521.256H184.472V451.117Z" fill="#EDEDE9" stroke="#110A0A" stroke-width="4" stroke-linecap="round" stroke-linejoin="round"/>
<path id="Vector_37" d="M166.177 469.414H184.472" stroke="#110A0A" stroke-width="4" stroke-linecap="round" stroke-linejoin="round"/>
<path id="Vector_38" d="M164.653 484.662H179.898" stroke="#110A0A" stroke-width="4" stroke-linejoin="round"/>
<path id="Vector_39" d="M166.177 506.009H179.898" stroke="#110A0A" stroke-width="4" stroke-linejoin="round"/>
<path id="Vector_40" d="M163.311 451.117H145.016V521.256H163.311V451.117Z" fill="#EDEDE9" stroke="#110A0A" stroke-width="4" stroke-linecap="round" stroke-linejoin="round"/>
<path id="Vector_41" d="M145.016 469.414H163.311" stroke="#110A0A" stroke-width="4" stroke-linecap="round" stroke-linejoin="round"/>
<path id="Vector_42" d="M143.492 484.662H158.737" stroke="#110A0A" stroke-width="4" stroke-linejoin="round"/>
<path id="Vector_43" d="M145.016 506.009H158.737" stroke="#110A0A" stroke-width="4" stroke-linejoin="round"/>
<path id="Vector_44" d="M144.445 454.295L126.753 449.636L108.898 517.465L126.59 522.123L144.445 454.295Z" fill="#EDEDE9" stroke="#110A0A" stroke-width="4" stroke-linecap="round" stroke-linejoin="round"/>
<path id="Vector_45" d="M122.117 467.31L139.802 471.976" stroke="#110A0A" stroke-width="4" stroke-linecap="round" stroke-linejoin="round"/>
<path id="Vector_46" d="M116.781 481.673L131.509 485.546" stroke="#110A0A" stroke-width="4" stroke-linejoin="round"/>
<path id="Vector_47" d="M112.818 502.715L126.081 506.192" stroke="#110A0A" stroke-width="4" stroke-linejoin="round"/>
</g>
</g>
</g>
</g>
<g id="cattail">
<path id="Vector_48" d="M230.208 494.329C224.97 483.863 221.861 472.461 221.061 460.784C219.964 453.592 220.139 446.263 221.58 439.132C223.775 429.617 226.854 428.702 228.044 421.139C229.934 408.941 224.781 394.364 218.896 393.693C213.652 393.084 208.468 403.544 205.816 408.941C198.131 425.067 195.262 443.068 197.552 460.784C201.974 493.383 222.372 514.456 230.208 521.775C243.899 524.977 247.527 523.513 248.503 521.775C250.699 517.749 239.051 511.376 230.208 494.329Z" fill="#806755" stroke="black" stroke-width="3" stroke-linecap="round" stroke-linejoin="round"/>
</g>
<g id="catthead">
<path id="Vector_49" d="M490.908 185.226C490.908 180.072 488.743 177.419 484.444 177.419C481.212 177.419 478.529 178.852 472.857 183.518L395.654 247.894L318.145 183.579C313.023 179.249 309.79 177.48 306.589 177.48C302.259 177.48 300.125 180.347 300.125 185.287V318.369C300.132 318.979 300.225 319.585 300.399 320.169C299.759 367.193 341.959 403.147 396.69 402.507C449.958 403.391 491.67 367.101 490.877 321.663C490.877 320.901 490.877 320.138 490.877 319.376C490.909 319.051 490.909 318.724 490.877 318.4L490.908 185.226Z" fill="#CEC9B6" stroke="#110A0A" stroke-width="4" stroke-miterlimit="10"/>
<path id="Vector_50" d="M380.713 248.199L307.9 184.982V276.652C311.453 269.071 316.904 262.537 323.725 257.683C334.275 250.303 345.465 249.328 358.485 248.199C365.879 247.539 373.318 247.539 380.713 248.199Z" fill="#806755" stroke="black" stroke-width="4" stroke-linecap="round" stroke-linejoin="round"/>
<path id="Vector_51" d="M409.436 248.199L482.157 184.982V276.652C478.604 269.071 473.153 262.537 466.332 257.683C455.782 250.303 444.592 249.328 431.572 248.199C424.208 247.547 416.8 247.547 409.436 248.199Z" fill="#806755" stroke="black" stroke-width="4" stroke-linecap="round" stroke-linejoin="round"/>
<path id="Vector_52" d="M398.215 261.038C354.308 260.519 332.323 260.275 321.56 275.005C310.217 290.497 310.4 322.029 310.4 322.029C310.382 322.283 310.382 322.538 310.4 322.791L310.583 323.493C310.034 362.497 347.935 392.291 397.148 391.742C444.988 392.474 482.523 362.375 481.791 324.652C481.791 324.011 481.791 323.371 481.791 322.73C481.791 322.547 481.791 322.273 481.791 321.937C482.885 305.067 477.946 288.356 467.857 274.791C457.093 262.075 437.365 261.526 398.215 261.038Z" fill="#806755" stroke="black" stroke-width="4"/>
<path id="Vector_53" d="M416.357 337.978C416.357 337.978 406.539 356.275 398.062 354.11C389.586 351.945 378.426 338.679 379.127 335.813C379.829 332.946 409.344 331.665 416.357 337.978Z" fill="#FEFAE0" stroke="#110A0A" stroke-width="3" stroke-miterlimit="10"/>
<path id="Vector_54" d="M400.776 334.898L407.179 326.664C407.636 326.087 407.921 325.393 408.003 324.662C408.084 323.93 407.959 323.19 407.642 322.527C407.324 321.863 406.827 321.301 406.206 320.906C405.585 320.511 404.866 320.297 404.13 320.291H391.354C390.623 320.309 389.912 320.529 389.298 320.926C388.684 321.324 388.192 321.883 387.877 322.543C387.561 323.202 387.434 323.937 387.51 324.664C387.585 325.391 387.861 326.084 388.305 326.664L394.708 334.898C395.08 335.341 395.545 335.696 396.069 335.94C396.593 336.185 397.164 336.311 397.742 336.311C398.32 336.311 398.891 336.185 399.416 335.94C399.94 335.696 400.404 335.341 400.776 334.898Z" fill="#110A0A"/>
<path id="Vector_55" d="M395.958 326.939C389.758 330.866 382.693 333.221 375.377 333.8C372.408 334.148 369.4 333.889 366.535 333.038C363.096 331.774 359.975 329.776 357.387 327.183C353.759 323.676 348.24 329.195 351.838 332.733C355.117 336.029 359.041 338.614 363.363 340.326C366.957 341.607 370.784 342.096 374.584 341.76C383.519 341.261 392.187 338.535 399.8 333.831C404.069 331.147 400.136 324.377 395.837 327.03L395.958 326.939Z" fill="#110A0A"/>
<path id="Vector_56" d="M395.562 333.739C403.173 338.447 411.843 341.173 420.778 341.668C424.458 341.998 428.167 341.552 431.664 340.357C436.218 338.697 440.373 336.1 443.86 332.733C447.458 329.195 441.909 323.584 438.311 327.183C435.673 329.801 432.486 331.801 428.98 333.038C426.126 333.889 423.127 334.148 420.168 333.8C412.843 333.221 405.768 330.866 399.556 326.939C395.257 324.286 391.324 331.056 395.623 333.739H395.562Z" fill="#110A0A"/>
<path id="Vector_57" d="M347.112 308.458C353.275 308.458 358.271 303.461 358.271 297.297C358.271 291.133 353.275 286.136 347.112 286.136C340.948 286.136 335.952 291.133 335.952 297.297C335.952 303.461 340.948 308.458 347.112 308.458Z" fill="#110A0A"/>
<path id="Vector_58" d="M448.708 306.415C454.871 306.415 459.868 301.418 459.868 295.254C459.868 289.09 454.871 284.092 448.708 284.092C442.545 284.092 437.548 289.09 437.548 295.254C437.548 301.418 442.545 306.415 448.708 306.415Z" fill="#110A0A"/>
</g>
<g id="catphone">
<path id="Vector_59" d="M524.723 262.288L502.739 292.784C504.058 293.879 505.102 295.268 505.788 296.84C509.569 308.184 503.257 322.883 496.091 332.885C488.926 342.888 476.974 353.561 465.021 353.592C463.329 353.457 461.692 352.936 460.234 352.067L438.25 382.563C444.348 387.411 449.806 390.918 452.825 390.43C487.584 384.728 542.621 308.092 536.919 273.358C536.218 270.583 531.217 266.375 524.723 262.288Z" fill="#FEFAE0" stroke="white" stroke-width="4" stroke-miterlimit="10"/>
<path id="Vector_60" d="M508.776 253.658L487.828 282.812C491.545 284.79 495.139 286.989 498.592 289.399L520.119 259.452C516.185 257.317 512.221 255.305 508.776 253.658Z" fill="#6C584C" stroke="black" stroke-width="4" stroke-linecap="round" stroke-linejoin="round"/>
<path id="Vector_61" d="M445.781 341.089L424.864 370.242C427.578 373.292 430.749 376.342 434.011 379.147L455.355 349.231C452.001 346.715 448.803 343.996 445.781 341.089Z" fill="#6C584C" stroke="black" stroke-width="4" stroke-linecap="round" stroke-linejoin="round"/>
<path id="Vector_62" d="M508.776 247.711C508.202 247.455 507.556 247.406 506.95 247.573C506.344 247.74 505.814 248.112 505.452 248.626L481.334 282.171C481.107 282.498 480.952 282.87 480.88 283.261C480.808 283.653 480.819 284.055 480.915 284.442C481.01 284.828 481.186 285.19 481.432 285.503C481.678 285.816 481.987 286.073 482.34 286.258C490.451 290.375 499.689 296.352 500.452 298.669C503.043 306.385 499.537 318.613 491.518 329.775C483.499 340.936 473.04 348.072 464.899 348.072C462.46 348.072 453.831 341.241 447.336 334.837C447.048 334.565 446.706 334.357 446.332 334.227C445.957 334.097 445.56 334.047 445.165 334.082C444.771 334.117 444.388 334.234 444.042 334.428C443.696 334.621 443.395 334.885 443.159 335.203L419.071 368.748C418.697 369.255 418.511 369.875 418.544 370.504C418.577 371.133 418.828 371.73 419.254 372.194C423.126 376.463 442.976 397.719 453.617 395.981C491.274 389.882 548.445 310.227 542.286 272.565C540.517 262.044 514.081 249.998 508.776 247.711ZM498.439 289.399C494.987 286.989 491.392 284.79 487.676 282.812L508.776 253.658C512.374 255.305 516.338 257.317 520.118 259.452L498.439 289.399ZM424.864 370.242L445.781 341.089C448.843 344 452.081 346.719 455.477 349.231L434.133 379.147C430.749 376.25 427.578 373.139 424.864 370.242ZM452.733 390.644C449.684 391.132 444.104 387.594 438.158 382.776L460.142 352.281C461.6 353.149 463.238 353.671 464.929 353.805C476.882 353.805 488.804 343.101 496 333.099C503.196 323.096 509.477 308.397 505.696 297.053C505.01 295.482 503.966 294.092 502.647 292.997L524.631 262.502C531.126 266.588 536.248 270.796 536.828 273.785C542.529 308.367 487.432 384.941 452.733 390.644Z" fill="black"/>
</g>
</g>
</svg>
