<svg width="1041" height="781" viewBox="0 0 1041 781" fill="none" xmlns="http://www.w3.org/2000/svg">
<g id="catt">
<g id=" monitor">
<path id="Vector" d="M3.74895 563.596C3.74895 610.065 40.9956 610.065 40.9956 610.065H199.294L189.982 89.6143C189.982 89.6143 115.489 117.496 50.3073 136.083C21.348 144.355 8.96349 158.109 3.74895 170.842C3.74895 170.842 3.19025 173.63 3.74895 201.139V563.596Z" fill="#EDEDE9" stroke="#110A0A" stroke-width="6" stroke-miterlimit="10"/>
<path id="Vector_2" d="M159.626 210.433H71.3517C64.8719 210.433 59.619 215.676 59.619 222.143V235.898C59.619 242.365 64.8719 247.608 71.3517 247.608H159.626C166.106 247.608 171.359 242.365 171.359 235.898V222.143C171.359 215.676 166.106 210.433 159.626 210.433Z" fill="#110A0A" stroke="#110A0A" stroke-width="6" stroke-miterlimit="10"/>
<path id="Vector_3" d="M159.626 294.077H71.3517C64.8719 294.077 59.619 299.32 59.619 305.787V319.542C59.619 326.009 64.8719 331.252 71.3517 331.252H159.626C166.106 331.252 171.359 326.009 171.359 319.542V305.787C171.359 299.32 166.106 294.077 159.626 294.077Z" fill="#110A0A" stroke="#110A0A" stroke-width="6" stroke-miterlimit="10"/>
<path id="Vector_4" d="M159.626 396.309H71.3517C64.8719 396.309 59.619 401.551 59.619 408.019V421.774C59.619 428.241 64.8719 433.484 71.3517 433.484H159.626C166.106 433.484 171.359 428.241 171.359 421.774V408.019C171.359 401.551 166.106 396.309 159.626 396.309Z" fill="#110A0A" stroke="#110A0A" stroke-width="6" stroke-miterlimit="10"/>
<path id="Vector_5" d="M159.626 479.953H71.3517C64.8719 479.953 59.619 485.195 59.619 491.663V505.417C59.619 511.885 64.8719 517.128 71.3517 517.128H159.626C166.106 517.128 171.359 511.885 171.359 505.417V491.663C171.359 485.195 166.106 479.953 159.626 479.953Z" fill="#110A0A" stroke="#110A0A" stroke-width="6" stroke-miterlimit="10"/>
<path id="Vector_6" d="M216.148 712.39H163.817C157.697 712.39 152.736 717.341 152.736 723.449V729.212C152.736 735.32 157.697 740.271 163.817 740.271H216.148C222.268 740.271 227.229 735.32 227.229 729.212V723.449C227.229 717.341 222.268 712.39 216.148 712.39Z" fill="#110A0A"/>
<path id="Vector_7" d="M327.888 712.39H275.557C269.437 712.39 264.476 717.341 264.476 723.449V729.212C264.476 735.32 269.437 740.271 275.557 740.271H327.888C334.008 740.271 338.969 735.32 338.969 729.212V723.449C338.969 717.341 334.008 712.39 327.888 712.39Z" fill="#110A0A"/>
<path id="Vector_8" d="M216.148 712.39H163.817C157.697 712.39 152.736 717.341 152.736 723.449V729.212C152.736 735.32 157.697 740.271 163.817 740.271H216.148C222.268 740.271 227.229 735.32 227.229 729.212V723.449C227.229 717.341 222.268 712.39 216.148 712.39Z" fill="#110A0A"/>
<path id="Vector_9" d="M87.1815 730.884H802.038C810.082 730.884 817.799 734.06 823.504 739.72C829.209 745.379 832.438 753.061 832.488 761.089V777.167H59.619V758.58C59.6671 751.281 62.5806 744.293 67.7339 739.115C72.8873 733.936 79.8695 730.981 87.1815 730.884Z" fill="#EDEDE9" stroke="#110A0A" stroke-width="6" stroke-miterlimit="10"/>
<path id="Vector_10" d="M618.319 628.653H385.527V740.178H618.319V628.653Z" fill="#EDEDE9" stroke="#110A0A" stroke-width="6" stroke-miterlimit="10"/>
<path id="Vector_11" d="M692.812 628.653H460.021V740.178H692.812V628.653Z" fill="#EDEDE9" stroke="#110A0A" stroke-width="6" stroke-miterlimit="10"/>
<path id="Vector_12" d="M893.572 3.64688H184.768C161.934 3.64688 143.424 22.1216 143.424 44.9112V612.946C143.424 635.736 161.934 654.211 184.768 654.211H893.572C916.406 654.211 934.916 635.736 934.916 612.946V44.9112C934.916 22.1216 916.406 3.64688 893.572 3.64688Z" fill="#EDEDE9" stroke="#110A0A" stroke-width="6" stroke-miterlimit="10"/>
<path id="Vector_13" d="M982.033 3.64688H273.229C250.395 3.64688 231.885 22.1216 231.885 44.9112V612.946C231.885 635.736 250.395 654.211 273.229 654.211H982.033C1004.87 654.211 1023.38 635.736 1023.38 612.946V44.9112C1023.38 22.1216 1004.87 3.64688 982.033 3.64688Z" fill="#EDEDE9" stroke="#110A0A" stroke-width="6" stroke-miterlimit="10"/>
<path id="Vector_14" d="M934.916 89.6143H329.657V572.89H934.916V89.6143Z" fill="#FEFAE0" stroke="#110A0A" stroke-width="6" stroke-miterlimit="10"/>
<path id="Vector_15" d="M421.005 712.39H368.673C362.553 712.39 357.592 717.341 357.592 723.449V729.212C357.592 735.32 362.553 740.271 368.673 740.271H421.005C427.125 740.271 432.086 735.32 432.086 729.212V723.449C432.086 717.341 427.125 712.39 421.005 712.39Z" fill="#110A0A"/>
<path id="Vector_16" d="M622.975 712.39H481.81C474.096 712.39 467.842 718.631 467.842 726.33C467.842 734.03 474.096 740.271 481.81 740.271H622.975C630.689 740.271 636.942 734.03 636.942 726.33C636.942 718.631 630.689 712.39 622.975 712.39Z" fill="#110A0A"/>
<path id="Vector_17" d="M737.602 712.39H685.27C679.15 712.39 674.189 717.341 674.189 723.449V729.212C674.189 735.32 679.15 740.271 685.27 740.271H737.602C743.721 740.271 748.682 735.32 748.682 729.212V723.449C748.682 717.341 743.721 712.39 737.602 712.39Z" fill="#110A0A"/>
<path id="Vector_18" d="M849.342 712.39H797.01C790.89 712.39 785.929 717.341 785.929 723.449V729.212C785.929 735.32 790.89 740.271 797.01 740.271H849.342C855.461 740.271 860.423 735.32 860.423 729.212V723.449C860.423 717.341 855.461 712.39 849.342 712.39Z" fill="#110A0A"/>
<path id="Vector_19" d="M951.77 712.39H899.438C893.319 712.39 888.358 717.341 888.358 723.449V729.212C888.358 735.32 893.319 740.271 899.438 740.271H951.77C957.89 740.271 962.851 735.32 962.851 729.212V723.449C962.851 717.341 957.89 712.39 951.77 712.39Z" fill="#110A0A"/>
<path id="Vector_20" d="M346.046 591.478H331.892C325.515 591.478 320.346 596.637 320.346 603.002V617.129C320.346 623.493 325.515 628.653 331.892 628.653H346.046C352.423 628.653 357.592 623.493 357.592 617.129V603.002C357.592 596.637 352.423 591.478 346.046 591.478Z" stroke="#110A0A" stroke-width="6" stroke-miterlimit="10"/>
<path id="Vector_21" d="M401.916 591.478H387.762C381.385 591.478 376.216 596.637 376.216 603.002V617.129C376.216 623.493 381.385 628.653 387.762 628.653H401.916C408.293 628.653 413.462 623.493 413.462 617.129V603.002C413.462 596.637 408.293 591.478 401.916 591.478Z" stroke="#110A0A" stroke-width="6" stroke-miterlimit="10"/>
<path id="Vector_22" d="M292.038 730.884H1006.9C1014.94 730.884 1022.66 734.06 1028.36 739.72C1034.07 745.379 1037.3 753.061 1037.34 761.089V777.167H264.476V758.58C264.524 751.281 267.437 744.293 272.591 739.115C277.744 733.936 284.726 730.981 292.038 730.884Z" fill="#EDEDE9" stroke="#110A0A" stroke-width="6" stroke-miterlimit="10"/>
</g>
<g id="cathead">
<path id="Vector_23" d="M804.933 134.879C804.933 125.802 801.165 121 793.602 121C787.923 121 783.214 123.554 773.296 131.881L637.688 245.053L501.665 131.909C492.689 124.359 487.01 121.083 481.358 121.083C473.795 121.083 470 126.163 470 134.963V368.995C470.015 370.069 470.183 371.134 470.499 372.16C469.391 454.853 543.441 518.087 639.489 516.921C732.96 518.448 806.207 454.631 804.794 374.769C804.794 373.409 804.794 371.993 804.794 370.689C804.825 370.125 804.825 369.559 804.794 368.995L804.933 134.879Z" fill="#F0EAD2" stroke="#240115" stroke-width="7"/>
<path id="Vector_24" d="M611.287 245.719L483.575 134.407V295.685C489.799 282.381 499.34 270.908 511.278 262.375C529.811 249.411 549.453 247.69 572.225 245.719C585.221 244.575 598.291 244.575 611.287 245.719Z" fill="#6C584C" stroke="#240115" stroke-width="7" stroke-linecap="round" stroke-linejoin="round"/>
<path id="Vector_25" d="M661.929 245.719L789.53 134.407V295.685C783.314 282.375 773.771 270.901 761.827 262.375C743.293 249.411 723.652 247.69 700.879 245.719C687.921 244.581 674.887 244.581 661.929 245.719Z" fill="#6C584C" stroke="#240115" stroke-width="7" stroke-linecap="round" stroke-linejoin="round"/>
<path id="Vector_26" d="M640.985 268.204C563.887 267.26 525.324 266.816 506.402 292.715C486.511 319.974 486.816 375.38 486.816 375.63C486.791 376.083 486.791 376.537 486.816 376.99C486.897 377.404 487.008 377.813 487.148 378.211C486.345 446.803 552.833 499.211 639.212 498.323C723.208 499.572 789.031 446.664 787.785 380.46C787.785 379.321 787.785 378.211 787.785 377.101C787.785 376.768 787.785 376.296 787.785 375.685C790.25 341.958 776.703 308.87 763.323 292.77C744.346 270.008 709.717 269.009 640.985 268.204Z" fill="#806755" stroke="#240115" stroke-width="7"/>
<path id="Vector_27" d="M518.37 341.736H518.01C517.119 341.691 516.246 341.467 515.443 341.079C514.639 340.691 513.921 340.147 513.33 339.477C512.739 338.808 512.288 338.027 512.002 337.18C511.716 336.334 511.602 335.438 511.666 334.547C512.015 328.393 513.638 322.379 516.433 316.888C519.228 311.397 523.133 306.549 527.9 302.652C532.086 299.136 536.959 296.532 542.206 295.007C547.452 293.483 552.959 293.071 558.374 293.797C576.796 296.573 591.34 313.922 592.227 334.075C592.268 334.957 592.135 335.839 591.835 336.67C591.536 337.501 591.075 338.264 590.481 338.916C589.887 339.569 589.17 340.097 588.371 340.472C587.573 340.846 586.708 341.059 585.828 341.098C584.061 341.144 582.346 340.502 581.044 339.305C579.741 338.109 578.953 336.453 578.846 334.686C578.209 320.806 568.568 308.953 556.351 307.094C552.762 306.616 549.113 306.903 545.642 307.936C542.171 308.969 538.957 310.725 536.211 313.089C532.902 315.808 530.194 319.185 528.258 323.008C526.321 326.831 525.199 331.016 524.963 335.296C524.893 337.01 524.171 338.632 522.945 339.83C521.719 341.027 520.082 341.709 518.37 341.736Z" fill="#240115"/>
<path id="Vector_28" d="M695.145 341.736H694.757C692.987 341.601 691.343 340.769 690.185 339.421C689.027 338.073 688.449 336.321 688.579 334.547C688.906 328.378 690.514 322.345 693.3 316.834C696.085 311.323 699.988 306.455 704.758 302.541C708.943 299.023 713.816 296.418 719.063 294.894C724.31 293.369 729.817 292.958 735.231 293.686C753.626 296.462 768.198 313.811 769.085 333.964C769.126 334.846 768.993 335.728 768.693 336.559C768.393 337.39 767.933 338.153 767.339 338.805C766.744 339.458 766.027 339.986 765.229 340.36C764.43 340.735 763.566 340.948 762.685 340.987C760.914 341.041 759.192 340.401 757.884 339.204C756.575 338.007 755.784 336.347 755.676 334.575C755.067 320.695 745.399 308.842 733.209 306.983C729.651 306.536 726.039 306.839 722.604 307.871C719.17 308.904 715.988 310.643 713.263 312.978C709.954 315.697 707.246 319.074 705.309 322.897C703.373 326.72 702.251 330.905 702.015 335.185C701.997 336.069 701.805 336.94 701.449 337.748C701.093 338.557 700.581 339.287 699.943 339.896C699.304 340.505 698.551 340.981 697.727 341.297C696.904 341.613 696.026 341.762 695.145 341.736Z" fill="#240115"/>
<path id="Vector_29" d="M645.5 398.059L656.582 383.596C657.353 382.565 657.823 381.339 657.939 380.056C658.054 378.772 657.811 377.482 657.236 376.329C656.661 375.176 655.776 374.207 654.682 373.529C653.588 372.852 652.327 372.493 651.041 372.493H628.601C627.315 372.493 626.054 372.852 624.96 373.529C623.866 374.207 622.982 375.176 622.407 376.329C621.832 377.482 621.588 378.772 621.704 380.056C621.819 381.339 622.289 382.565 623.061 383.596L634.142 398.059C634.784 398.969 635.635 399.712 636.623 400.225C637.612 400.738 638.708 401.006 639.821 401.006C640.934 401.006 642.031 400.738 643.019 400.225C644.007 399.712 644.858 398.969 645.5 398.059Z" fill="#240115"/>
<path id="Vector_30" d="M636.802 384.096C625.913 391.004 613.499 395.131 600.649 396.115C595.45 396.752 590.177 396.298 585.163 394.783C579.019 392.623 573.434 389.114 568.818 384.512C562.474 378.322 552.722 388.065 559.094 394.256C565.018 400.045 572.073 404.544 579.816 407.469C586.115 409.718 592.824 410.58 599.485 409.995C615.185 409.148 630.423 404.376 643.811 396.115C651.318 391.452 644.42 379.46 636.857 384.207L636.802 384.096Z" fill="#240115"/>
<path id="Vector_31" d="M636.303 396.004C649.69 404.265 664.929 409.037 680.628 409.884C687.082 410.459 693.584 409.674 699.716 407.58C707.697 404.668 714.969 400.088 721.047 394.145C727.364 388.065 717.612 378.322 711.24 384.512C706.624 389.114 701.04 392.623 694.895 394.783C689.882 396.3 684.608 396.754 679.409 396.115C666.608 395.1 654.247 390.974 643.395 384.096C635.832 379.405 628.934 391.313 636.441 396.004H636.303Z" fill="#240115"/>
</g>
</g>
</svg>
