<svg width="1041" height="781" viewBox="0 0 1041 781" fill="none" xmlns="http://www.w3.org/2000/svg">
<g id="catt">
<g id=" monitor">
<path id="Vector" d="M3.74895 563.596C3.74895 610.065 40.9956 610.065 40.9956 610.065H199.294L189.982 89.6143C189.982 89.6143 115.489 117.496 50.3073 136.083C21.348 144.355 8.96349 158.109 3.74895 170.842C3.74895 170.842 3.19025 173.63 3.74895 201.139V563.596Z" fill="#EDEDE9" stroke="#110A0A" stroke-width="6" stroke-miterlimit="10"/>
<path id="Vector_2" d="M159.626 210.433H71.3517C64.8719 210.433 59.619 215.676 59.619 222.143V235.898C59.619 242.365 64.8719 247.608 71.3517 247.608H159.626C166.106 247.608 171.359 242.365 171.359 235.898V222.143C171.359 215.676 166.106 210.433 159.626 210.433Z" fill="#110A0A" stroke="#110A0A" stroke-width="6" stroke-miterlimit="10"/>
<path id="Vector_3" d="M159.626 294.077H71.3517C64.8719 294.077 59.619 299.32 59.619 305.787V319.542C59.619 326.009 64.8719 331.252 71.3517 331.252H159.626C166.106 331.252 171.359 326.009 171.359 319.542V305.787C171.359 299.32 166.106 294.077 159.626 294.077Z" fill="#110A0A" stroke="#110A0A" stroke-width="6" stroke-miterlimit="10"/>
<path id="Vector_4" d="M159.626 396.309H71.3517C64.8719 396.309 59.619 401.551 59.619 408.019V421.774C59.619 428.241 64.8719 433.484 71.3517 433.484H159.626C166.106 433.484 171.359 428.241 171.359 421.774V408.019C171.359 401.551 166.106 396.309 159.626 396.309Z" fill="#110A0A" stroke="#110A0A" stroke-width="6" stroke-miterlimit="10"/>
<path id="Vector_5" d="M159.626 479.953H71.3517C64.8719 479.953 59.619 485.195 59.619 491.663V505.417C59.619 511.885 64.8719 517.128 71.3517 517.128H159.626C166.106 517.128 171.359 511.885 171.359 505.417V491.663C171.359 485.195 166.106 479.953 159.626 479.953Z" fill="#110A0A" stroke="#110A0A" stroke-width="6" stroke-miterlimit="10"/>
<path id="Vector_6" d="M216.148 712.39H163.817C157.697 712.39 152.736 717.341 152.736 723.449V729.212C152.736 735.32 157.697 740.271 163.817 740.271H216.148C222.268 740.271 227.229 735.32 227.229 729.212V723.449C227.229 717.341 222.268 712.39 216.148 712.39Z" fill="#110A0A"/>
<path id="Vector_7" d="M327.888 712.39H275.557C269.437 712.39 264.476 717.341 264.476 723.449V729.212C264.476 735.32 269.437 740.271 275.557 740.271H327.888C334.008 740.271 338.969 735.32 338.969 729.212V723.449C338.969 717.341 334.008 712.39 327.888 712.39Z" fill="#110A0A"/>
<path id="Vector_8" d="M216.148 712.39H163.817C157.697 712.39 152.736 717.341 152.736 723.449V729.212C152.736 735.32 157.697 740.271 163.817 740.271H216.148C222.268 740.271 227.229 735.32 227.229 729.212V723.449C227.229 717.341 222.268 712.39 216.148 712.39Z" fill="#110A0A"/>
<path id="Vector_9" d="M87.1815 730.884H802.038C810.082 730.884 817.799 734.06 823.504 739.72C829.209 745.379 832.438 753.061 832.488 761.089V777.167H59.619V758.58C59.6671 751.281 62.5806 744.293 67.7339 739.115C72.8873 733.936 79.8695 730.981 87.1815 730.884Z" fill="#EDEDE9" stroke="#110A0A" stroke-width="6" stroke-miterlimit="10"/>
<path id="Vector_10" d="M618.319 628.653H385.527V740.178H618.319V628.653Z" fill="#EDEDE9" stroke="#110A0A" stroke-width="6" stroke-miterlimit="10"/>
<path id="Vector_11" d="M692.812 628.653H460.021V740.178H692.812V628.653Z" fill="#EDEDE9" stroke="#110A0A" stroke-width="6" stroke-miterlimit="10"/>
<path id="Vector_12" d="M893.572 3.64688H184.768C161.934 3.64688 143.424 22.1216 143.424 44.9112V612.946C143.424 635.736 161.934 654.211 184.768 654.211H893.572C916.406 654.211 934.916 635.736 934.916 612.946V44.9112C934.916 22.1216 916.406 3.64688 893.572 3.64688Z" fill="#EDEDE9" stroke="#110A0A" stroke-width="6" stroke-miterlimit="10"/>
<path id="Vector_13" d="M982.033 3.64688H273.229C250.395 3.64688 231.885 22.1216 231.885 44.9112V612.946C231.885 635.736 250.395 654.211 273.229 654.211H982.033C1004.87 654.211 1023.38 635.736 1023.38 612.946V44.9112C1023.38 22.1216 1004.87 3.64688 982.033 3.64688Z" fill="#EDEDE9" stroke="#110A0A" stroke-width="6" stroke-miterlimit="10"/>
<path id="Vector_14" d="M934.916 89.6143H329.657V572.89H934.916V89.6143Z" fill="#FEFAE0" stroke="#110A0A" stroke-width="6" stroke-miterlimit="10"/>
<path id="Vector_15" d="M421.005 712.39H368.673C362.553 712.39 357.592 717.341 357.592 723.449V729.212C357.592 735.32 362.553 740.271 368.673 740.271H421.005C427.125 740.271 432.086 735.32 432.086 729.212V723.449C432.086 717.341 427.125 712.39 421.005 712.39Z" fill="#110A0A"/>
<path id="Vector_16" d="M622.975 712.39H481.81C474.096 712.39 467.842 718.631 467.842 726.33C467.842 734.03 474.096 740.271 481.81 740.271H622.975C630.689 740.271 636.942 734.03 636.942 726.33C636.942 718.631 630.689 712.39 622.975 712.39Z" fill="#110A0A"/>
<path id="Vector_17" d="M737.602 712.39H685.27C679.15 712.39 674.189 717.341 674.189 723.449V729.212C674.189 735.32 679.15 740.271 685.27 740.271H737.602C743.721 740.271 748.682 735.32 748.682 729.212V723.449C748.682 717.341 743.721 712.39 737.602 712.39Z" fill="#110A0A"/>
<path id="Vector_18" d="M849.342 712.39H797.01C790.89 712.39 785.929 717.341 785.929 723.449V729.212C785.929 735.32 790.89 740.271 797.01 740.271H849.342C855.461 740.271 860.423 735.32 860.423 729.212V723.449C860.423 717.341 855.461 712.39 849.342 712.39Z" fill="#110A0A"/>
<path id="Vector_19" d="M951.77 712.39H899.438C893.319 712.39 888.358 717.341 888.358 723.449V729.212C888.358 735.32 893.319 740.271 899.438 740.271H951.77C957.89 740.271 962.851 735.32 962.851 729.212V723.449C962.851 717.341 957.89 712.39 951.77 712.39Z" fill="#110A0A"/>
<path id="Vector_20" d="M346.046 591.478H331.892C325.515 591.478 320.346 596.637 320.346 603.002V617.129C320.346 623.493 325.515 628.653 331.892 628.653H346.046C352.423 628.653 357.592 623.493 357.592 617.129V603.002C357.592 596.637 352.423 591.478 346.046 591.478Z" stroke="#110A0A" stroke-width="6" stroke-miterlimit="10"/>
<path id="Vector_21" d="M401.916 591.478H387.762C381.385 591.478 376.216 596.637 376.216 603.002V617.129C376.216 623.493 381.385 628.653 387.762 628.653H401.916C408.293 628.653 413.462 623.493 413.462 617.129V603.002C413.462 596.637 408.293 591.478 401.916 591.478Z" stroke="#110A0A" stroke-width="6" stroke-miterlimit="10"/>
<path id="Vector_22" d="M292.038 730.884H1006.9C1014.94 730.884 1022.66 734.06 1028.36 739.72C1034.07 745.379 1037.3 753.061 1037.34 761.089V777.167H264.476V758.58C264.524 751.281 267.437 744.293 272.591 739.115C277.744 733.936 284.726 730.981 292.038 730.884Z" fill="#EDEDE9" stroke="#110A0A" stroke-width="6" stroke-miterlimit="10"/>
</g>
<g id="cathead">
<path id="Vector_23" d="M816.337 149.224C816.337 140.339 812.544 135.649 805.04 135.649C799.433 135.649 794.733 138.117 784.92 146.427L650.595 258.07L515.692 146.427C506.787 138.858 501.179 135.649 495.572 135.649C488.068 135.649 484.275 140.668 484.275 149.224V380.408C484.306 381.44 484.472 382.463 484.77 383.452C483.698 465.148 557.086 527.592 652.409 526.44C745.092 527.921 817.326 464.901 816.419 386.085C816.419 384.686 816.419 383.37 816.419 382.053C816.46 381.506 816.46 380.956 816.419 380.408L816.337 149.224Z" fill="#EDEDE9" stroke="#110A0A" stroke-width="5" stroke-miterlimit="10"/>
<path id="Vector_24" d="M623.706 258.594L497.945 149.314V307.827C504.072 294.74 513.475 283.453 525.245 275.06C543.527 262.362 562.957 260.642 585.421 258.676C598.157 257.562 610.965 257.535 623.706 258.594Z" fill="#EDEDE9" stroke="#110A0A" stroke-width="5" stroke-miterlimit="10"/>
<path id="Vector_25" d="M674.284 258.594L801.413 149.314V307.827C795.2 294.73 785.672 283.443 773.751 275.06C755.365 262.362 735.737 260.642 712.961 258.676C700.095 257.563 687.156 257.536 674.284 258.594Z" fill="#EDEDE9" stroke="#110A0A" stroke-width="5" stroke-miterlimit="10"/>
<path id="Vector_26" d="M653.423 280.828C576.986 279.837 538.85 279.424 520.071 305.099C500.385 332.094 500.632 386.994 500.714 387.241C500.691 387.681 500.691 388.122 500.714 388.562C500.667 388.946 500.667 389.334 500.714 389.718C499.726 457.661 565.62 509.588 651.199 508.68C734.39 509.918 799.46 457.496 798.389 391.864C798.389 390.791 798.389 389.635 798.389 388.562C798.389 387.489 798.389 387.737 798.389 387.159C800.397 357.831 791.93 328.743 774.502 305.099C755.805 282.561 721.458 281.571 653.423 280.828Z" fill="#EDEDE9" stroke="#110A0A" stroke-width="5" stroke-miterlimit="10"/>
<path id="Vector_27" d="M531.625 354.287C530.75 354.245 529.892 354.029 529.099 353.652C528.307 353.276 527.597 352.745 527.009 352.092C526.421 351.439 525.966 350.675 525.672 349.844C525.377 349.014 525.249 348.133 525.293 347.253C525.546 341.096 527.074 335.059 529.779 329.53C532.483 324.001 536.305 319.101 540.999 315.144C545.181 311.757 550.012 309.274 555.191 307.851C560.369 306.427 565.783 306.092 571.096 306.868C580.352 308.723 588.706 313.69 594.788 320.953C600.869 328.216 604.317 337.344 604.564 346.839C604.631 348.604 604.004 350.323 602.818 351.625C601.633 352.926 599.985 353.705 598.232 353.791C596.485 353.837 594.788 353.198 593.499 352.009C592.21 350.821 591.431 349.175 591.325 347.418C591.218 341.007 588.97 334.818 584.943 329.849C580.915 324.879 575.342 321.42 569.122 320.026C565.602 319.593 562.031 319.899 558.634 320.924C555.237 321.95 552.088 323.673 549.387 325.985C546.082 328.705 543.38 332.09 541.454 335.924C539.528 339.758 538.421 343.956 538.203 348.246C538.078 349.907 537.327 351.457 536.105 352.58C534.882 353.702 533.28 354.313 531.625 354.287Z" fill="#110A0A"/>
<path id="Vector_28" d="M707.883 354.06C706.13 353.953 704.49 353.157 703.32 351.845C702.149 350.533 701.543 348.81 701.633 347.052C701.906 340.888 703.477 334.852 706.241 329.34C709.005 323.827 712.9 318.962 717.671 315.064C721.787 311.743 726.536 309.298 731.627 307.88C736.719 306.463 742.045 306.102 747.28 306.82C756.553 308.651 764.928 313.592 771.027 320.83C777.126 328.067 780.586 337.169 780.838 346.64C780.973 347.564 780.913 348.507 780.663 349.407C780.412 350.307 779.975 351.144 779.381 351.865C778.787 352.585 778.049 353.172 777.214 353.589C776.38 354.005 775.467 354.241 774.536 354.282C773.604 354.322 772.675 354.166 771.807 353.824C770.94 353.482 770.153 352.961 769.499 352.295C768.845 351.63 768.338 350.833 768.01 349.959C767.682 349.084 767.541 348.15 767.596 347.217C767.485 340.818 765.225 334.644 761.18 329.692C757.135 324.74 751.543 321.3 745.306 319.928C741.786 319.502 738.215 319.809 734.818 320.83C731.421 321.851 728.272 323.565 725.567 325.864C722.288 328.592 719.609 331.97 717.698 335.787C715.787 339.604 714.686 343.777 714.463 348.041C714.319 349.689 713.563 351.222 712.344 352.336C711.125 353.451 709.533 354.066 707.883 354.06Z" fill="#110A0A"/>
<path id="Vector_29" d="M657.787 409.106L668.778 395.201C669.55 394.205 670.025 393.016 670.15 391.768C670.275 390.521 670.046 389.263 669.488 388.137C668.931 387.01 668.066 386.059 666.991 385.391C665.917 384.722 664.675 384.362 663.405 384.351H641.421C640.151 384.362 638.909 384.722 637.834 385.391C636.76 386.059 635.895 387.01 635.337 388.137C634.779 389.263 634.55 390.521 634.676 391.768C634.801 393.016 635.276 394.205 636.047 395.201L647.039 409.106C647.679 409.908 648.495 410.557 649.426 411.003C650.357 411.449 651.378 411.681 652.413 411.681C653.448 411.681 654.469 411.449 655.4 411.003C656.33 410.557 657.147 409.908 657.787 409.106Z" fill="#110A0A"/>
<path id="Vector_30" d="M649.495 395.493C638.741 402.272 626.513 406.344 613.854 407.361C608.699 408.007 603.467 407.558 598.496 406.042C592.334 403.941 586.721 400.476 582.072 395.905C575.748 389.724 566.14 399.367 572.463 405.548C578.302 411.269 585.267 415.705 592.912 418.57C599.109 420.83 605.73 421.675 612.293 421.043C627.802 420.206 642.854 415.474 656.065 407.279C663.456 402.581 656.64 390.795 649.167 395.493H649.495Z" fill="#110A0A"/>
<path id="Vector_31" d="M649.075 407.451C662.236 415.542 677.223 420.22 692.667 421.056C698.996 421.635 705.376 420.886 711.396 418.857C719.265 415.881 726.424 411.302 732.415 405.414C738.631 399.304 729.062 389.772 722.765 395.882C718.134 400.401 712.544 403.825 706.407 405.903C701.457 407.401 696.246 407.845 691.113 407.207C678.505 406.201 666.328 402.176 655.617 395.475C648.175 390.831 641.387 402.481 648.747 407.125L649.075 407.451Z" fill="#110A0A"/>
</g>
</g>
</svg>
